<svg id="visual" viewBox="0 0 540 960" width="540" height="960" xmlns="http://www.w3.org/2000/svg" xmlns:xlink="http://www.w3.org/1999/xlink" version="1.1"><path d="M480 960L471 945.5C462 931 444 902 435.8 872.8C427.7 843.7 429.3 814.3 427.5 785.2C425.7 756 420.3 727 416.7 698C413 669 411 640 410 611C409 582 409 553 418 523.8C427 494.7 445 465.3 448.7 436.2C452.3 407 441.7 378 440.8 349C440 320 449 291 442.7 262C436.3 233 414.7 204 407.5 174.8C400.3 145.7 407.7 116.3 406.8 87.2C406 58 397 29 392.5 14.5L388 0L540 0L540 14.5C540 29 540 58 540 87.2C540 116.3 540 145.7 540 174.8C540 204 540 233 540 262C540 291 540 320 540 349C540 378 540 407 540 436.2C540 465.3 540 494.7 540 523.8C540 553 540 582 540 611C540 640 540 669 540 698C540 727 540 756 540 785.2C540 814.3 540 843.7 540 872.8C540 902 540 931 540 945.5L540 960Z" fill="#0f5252"></path><path d="M231 960L250.8 945.5C270.7 931 310.3 902 323 872.8C335.7 843.7 321.3 814.3 300.7 785.2C280 756 253 727 249.3 698C245.7 669 265.3 640 273.3 611C281.3 582 277.7 553 274.2 523.8C270.7 494.7 267.3 465.3 276.3 436.2C285.3 407 306.7 378 319.2 349C331.7 320 335.3 291 314.7 262C294 233 249 204 241.8 174.8C234.7 145.7 265.3 116.3 267.2 87.2C269 58 242 29 228.5 14.5L215 0L389 0L393.5 14.5C398 29 407 58 407.8 87.2C408.7 116.3 401.3 145.7 408.5 174.8C415.7 204 437.3 233 443.7 262C450 291 441 320 441.8 349C442.7 378 453.3 407 449.7 436.2C446 465.3 428 494.7 419 523.8C410 553 410 582 411 611C412 640 414 669 417.7 698C421.3 727 426.7 756 428.5 785.2C430.3 814.3 428.7 843.7 436.8 872.8C445 902 463 931 472 945.5L481 960Z" fill="#0e5c5c"></path><path d="M188 960L195.2 945.5C202.3 931 216.7 902 219.3 872.8C222 843.7 213 814.3 201.3 785.2C189.7 756 175.3 727 182.5 698C189.7 669 218.3 640 223.7 611C229 582 211 553 196.7 523.8C182.3 494.7 171.7 465.3 179.8 436.2C188 407 215 378 227.7 349C240.3 320 238.7 291 221.5 262C204.3 233 171.7 204 173.3 174.8C175 145.7 211 116.3 215.5 87.2C220 58 193 29 179.5 14.5L166 0L216 0L229.5 14.5C243 29 270 58 268.2 87.2C266.3 116.3 235.7 145.7 242.8 174.8C250 204 295 233 315.7 262C336.3 291 332.7 320 320.2 349C307.7 378 286.3 407 277.3 436.2C268.3 465.3 271.7 494.7 275.2 523.8C278.7 553 282.3 582 274.3 611C266.3 640 246.7 669 250.3 698C254 727 281 756 301.7 785.2C322.3 814.3 336.7 843.7 324 872.8C311.3 902 271.7 931 251.8 945.5L232 960Z" fill="#0d6766"></path><path d="M107 960L121.3 945.5C135.7 931 164.3 902 167 872.8C169.7 843.7 146.3 814.3 128.3 785.2C110.3 756 97.7 727 106.7 698C115.7 669 146.3 640 153.7 611C161 582 145 553 128.8 523.8C112.7 494.7 96.3 465.3 101.7 436.2C107 407 134 378 152 349C170 320 179 291 164.7 262C150.3 233 112.7 204 110 174.8C107.3 145.7 139.7 116.3 149.5 87.2C159.3 58 146.7 29 140.3 14.5L134 0L167 0L180.5 14.5C194 29 221 58 216.5 87.2C212 116.3 176 145.7 174.3 174.8C172.7 204 205.3 233 222.5 262C239.7 291 241.3 320 228.7 349C216 378 189 407 180.8 436.2C172.7 465.3 183.3 494.7 197.7 523.8C212 553 230 582 224.7 611C219.3 640 190.7 669 183.5 698C176.3 727 190.7 756 202.3 785.2C214 814.3 223 843.7 220.3 872.8C217.7 902 203.3 931 196.2 945.5L189 960Z" fill="#0b7270"></path><path d="M0 960L0 945.5C0 931 0 902 0 872.8C0 843.7 0 814.3 0 785.2C0 756 0 727 0 698C0 669 0 640 0 611C0 582 0 553 0 523.8C0 494.7 0 465.3 0 436.2C0 407 0 378 0 349C0 320 0 291 0 262C0 233 0 204 0 174.8C0 145.7 0 116.3 0 87.2C0 58 0 29 0 14.5L0 0L135 0L141.3 14.5C147.7 29 160.3 58 150.5 87.2C140.7 116.3 108.3 145.7 111 174.8C113.7 204 151.3 233 165.7 262C180 291 171 320 153 349C135 378 108 407 102.7 436.2C97.3 465.3 113.7 494.7 129.8 523.8C146 553 162 582 154.7 611C147.3 640 116.7 669 107.7 698C98.7 727 111.3 756 129.3 785.2C147.3 814.3 170.7 843.7 168 872.8C165.3 902 136.7 931 122.3 945.5L108 960Z" fill="#087d7b"></path></svg>